<svg width="193" height="15" viewBox="0 0 193 15" fill="none" xmlns="http://www.w3.org/2000/svg">
<path d="M2.96 14.3201V0.320067H10.44C11.5867 0.320067 12.56 0.460068 13.36 0.740068C14.16 1.02007 14.76 1.4134 15.16 1.92007C15.56 2.42673 15.76 3.04007 15.76 3.76007C15.76 4.54673 15.54 5.2134 15.1 5.76007C14.66 6.30673 13.9933 6.68673 13.1 6.90007L13.16 6.52007C13.76 6.6534 14.3133 6.8734 14.82 7.18007C15.34 7.4734 15.7467 7.86673 16.04 8.36007C16.3467 8.84007 16.5 9.4134 16.5 10.0801C16.5 10.8934 16.34 11.5734 16.02 12.1201C15.7 12.6534 15.26 13.0867 14.7 13.4201C14.1533 13.7401 13.5467 13.9734 12.88 14.1201C12.2133 14.2534 11.5467 14.3201 10.88 14.3201H2.96ZM6.16 11.4801H10.9C11.34 11.4801 11.7267 11.4267 12.06 11.3201C12.4067 11.2001 12.6733 11.0267 12.86 10.8001C13.06 10.5601 13.16 10.2667 13.16 9.92007C13.16 9.54673 13.04 9.2534 12.8 9.04007C12.56 8.8134 12.2533 8.6534 11.88 8.56007C11.52 8.4534 11.16 8.40007 10.8 8.40007H6.16V11.4801ZM6.16 5.86007H10.34C10.7533 5.86007 11.1133 5.80673 11.42 5.70007C11.74 5.58007 11.9867 5.42007 12.16 5.22007C12.3333 5.02007 12.42 4.76673 12.42 4.46007C12.42 4.00673 12.2133 3.68007 11.8 3.48007C11.3867 3.26673 10.86 3.16007 10.22 3.16007H6.16V5.86007ZM17.0752 14.3201L23.6352 0.320067H26.7552L33.2752 14.3201H29.7752L26.0552 6.36007C25.9352 6.06673 25.8085 5.78007 25.6752 5.50007C25.5552 5.22007 25.4418 4.94673 25.3352 4.68007C25.2418 4.4134 25.1485 4.14673 25.0552 3.88007C24.9618 3.60007 24.8752 3.32673 24.7952 3.06007L25.5152 3.04007C25.4218 3.3334 25.3285 3.62007 25.2352 3.90007C25.1418 4.18007 25.0352 4.4534 24.9152 4.72007C24.8085 4.98673 24.6952 5.26007 24.5752 5.54007C24.4552 5.80673 24.3285 6.08673 24.1952 6.38007L20.4952 14.3201H17.0752ZM20.1352 11.7801L21.2352 9.22007H29.0752L29.6952 11.7801H20.1352ZM34.7811 14.3201V0.320067H37.8211L43.8611 8.34007L41.8611 8.32007L47.9011 0.320067H50.9011V14.3201H47.6011V9.82007C47.6011 8.68673 47.6278 7.6334 47.6811 6.66007C47.7344 5.68673 47.8411 4.70673 48.0011 3.72007L48.3411 4.82007L43.5011 10.9201H42.1811L37.3011 4.80007L37.6811 3.72007C37.8411 4.6934 37.9478 5.66673 38.0011 6.64007C38.0544 7.60007 38.0811 8.66007 38.0811 9.82007V14.3201H34.7811ZM61.7119 14.5201C60.4719 14.5201 59.3385 14.3401 58.3119 13.9801C57.2852 13.6067 56.3985 13.0934 55.6519 12.4401C54.9052 11.7867 54.3252 11.0201 53.9119 10.1401C53.4985 9.26007 53.2919 8.30007 53.2919 7.26007C53.2919 6.22007 53.4985 5.26007 53.9119 4.38007C54.3252 3.50007 54.9052 2.7334 55.6519 2.08007C56.4119 1.42673 57.2985 0.920068 58.3119 0.560068C59.3385 0.186735 60.4652 6.79493e-05 61.6919 6.79493e-05C62.9185 6.79493e-05 64.0452 0.186735 65.0719 0.560068C66.0985 0.920068 66.9852 1.42673 67.7319 2.08007C68.4785 2.7334 69.0585 3.50007 69.4719 4.38007C69.8852 5.26007 70.0919 6.22007 70.0919 7.26007C70.0919 8.30007 69.8852 9.26007 69.4719 10.1401C69.0585 11.0201 68.4785 11.7867 67.7319 12.4401C66.9852 13.0934 66.0985 13.6067 65.0719 13.9801C64.0452 14.3401 62.9252 14.5201 61.7119 14.5201ZM61.6919 11.3201C62.4119 11.3201 63.0719 11.2201 63.6719 11.0201C64.2852 10.8067 64.8119 10.5201 65.2519 10.1601C65.6919 9.78673 66.0319 9.3534 66.2719 8.86007C66.5119 8.36673 66.6319 7.8334 66.6319 7.26007C66.6319 6.68673 66.5119 6.1534 66.2719 5.66007C66.0319 5.16673 65.6919 4.74007 65.2519 4.38007C64.8119 4.00673 64.2852 3.72007 63.6719 3.52007C63.0719 3.30673 62.4119 3.20007 61.6919 3.20007C60.9719 3.20007 60.3119 3.30673 59.7119 3.52007C59.1119 3.72007 58.5852 4.00007 58.1319 4.36007C57.6919 4.72007 57.3519 5.14673 57.1119 5.64007C56.8852 6.1334 56.7719 6.6734 56.7719 7.26007C56.7719 7.8334 56.8852 8.3734 57.1119 8.88007C57.3519 9.3734 57.6919 9.80007 58.1319 10.1601C58.5852 10.5201 59.1119 10.8067 59.7119 11.0201C60.3119 11.2201 60.9719 11.3201 61.6919 11.3201ZM78.3317 14.5201C77.2517 14.5201 76.2651 14.4201 75.3717 14.2201C74.4917 14.0067 73.6917 13.7134 72.9717 13.3401C72.2651 12.9667 71.6184 12.5334 71.0317 12.0401L72.7517 9.42007C73.7117 10.2334 74.6851 10.8134 75.6717 11.1601C76.6584 11.4934 77.6184 11.6601 78.5517 11.6601C78.9651 11.6601 79.3784 11.6201 79.7917 11.5401C80.2184 11.4467 80.5717 11.3001 80.8517 11.1001C81.1451 10.8867 81.2917 10.5934 81.2917 10.2201C81.2917 10.0067 81.2251 9.82673 81.0917 9.68007C80.9584 9.52007 80.7717 9.3934 80.5317 9.30007C80.2917 9.1934 80.0051 9.10673 79.6717 9.04007C79.3517 8.9734 79.0117 8.92007 78.6517 8.88007C78.2917 8.82673 77.9184 8.7734 77.5317 8.72007C76.6251 8.6134 75.8251 8.44673 75.1317 8.22007C74.4384 7.9934 73.8384 7.70673 73.3317 7.36007C72.8384 7.0134 72.4584 6.60007 72.1917 6.12007C71.9384 5.62673 71.8117 5.06673 71.8117 4.44007C71.8117 3.74673 71.9717 3.12673 72.2917 2.58007C72.6251 2.02007 73.0917 1.5534 73.6917 1.18007C74.2917 0.793401 74.9784 0.500067 75.7517 0.300068C76.5384 0.100068 77.3784 6.79493e-05 78.2717 6.79493e-05C79.2317 6.79493e-05 80.0917 0.0934013 80.8517 0.280068C81.6251 0.466735 82.3051 0.720068 82.8917 1.04007C83.4784 1.36007 83.9584 1.72007 84.3317 2.12007L82.5717 4.40007C82.1984 4.06673 81.7717 3.7934 81.2917 3.58007C80.8117 3.3534 80.3051 3.18007 79.7717 3.06007C79.2384 2.94007 78.7184 2.88007 78.2117 2.88007C77.6651 2.88007 77.1784 2.9334 76.7517 3.04007C76.3384 3.1334 76.0051 3.2734 75.7517 3.46007C75.4984 3.64673 75.3717 3.88673 75.3717 4.18007C75.3717 4.44673 75.4717 4.66673 75.6717 4.84007C75.8851 5.0134 76.1584 5.1534 76.4917 5.26007C76.8384 5.36673 77.2117 5.4534 77.6117 5.52007C78.0117 5.58673 78.4117 5.64007 78.8117 5.68007C79.5851 5.78673 80.3317 5.92007 81.0517 6.08007C81.7851 6.24007 82.4384 6.46673 83.0117 6.76007C83.5851 7.0534 84.0317 7.44673 84.3517 7.94007C84.6851 8.4334 84.8517 9.0734 84.8517 9.86007C84.8517 10.8467 84.5651 11.6867 83.9917 12.3801C83.4317 13.0734 82.6584 13.6067 81.6717 13.9801C80.6984 14.3401 79.5851 14.5201 78.3317 14.5201ZM99.0342 14.3201V0.320067H106.054C107.294 0.320067 108.401 0.506734 109.374 0.880067C110.348 1.24007 111.174 1.74007 111.854 2.38007C112.534 3.02007 113.054 3.76673 113.414 4.62007C113.774 5.46007 113.954 6.36007 113.954 7.32007C113.954 8.2934 113.774 9.20007 113.414 10.0401C113.054 10.8801 112.534 11.6201 111.854 12.2601C111.174 12.9001 110.341 13.4067 109.354 13.7801C108.381 14.1401 107.281 14.3201 106.054 14.3201H99.0342ZM102.434 12.0001L101.974 11.3201H105.954C106.714 11.3201 107.374 11.2134 107.934 11.0001C108.494 10.7867 108.954 10.5001 109.314 10.1401C109.688 9.76673 109.968 9.34007 110.154 8.86007C110.341 8.36673 110.434 7.8534 110.434 7.32007C110.434 6.78673 110.341 6.28007 110.154 5.80007C109.968 5.32007 109.688 4.90007 109.314 4.54007C108.954 4.16673 108.494 3.8734 107.934 3.66007C107.374 3.4334 106.714 3.32007 105.954 3.32007H101.914L102.434 2.68007V12.0001ZM116.317 14.3201V0.320067H128.097V3.22007H119.617V11.4201H128.297V14.3201H116.317ZM118.077 8.58007V5.82007H127.197V8.58007H118.077ZM136.921 14.5201C135.841 14.5201 134.854 14.4201 133.961 14.2201C133.081 14.0067 132.281 13.7134 131.561 13.3401C130.854 12.9667 130.207 12.5334 129.621 12.0401L131.341 9.42007C132.301 10.2334 133.274 10.8134 134.261 11.1601C135.247 11.4934 136.207 11.6601 137.141 11.6601C137.554 11.6601 137.967 11.6201 138.381 11.5401C138.807 11.4467 139.161 11.3001 139.441 11.1001C139.734 10.8867 139.881 10.5934 139.881 10.2201C139.881 10.0067 139.814 9.82673 139.681 9.68007C139.547 9.52007 139.361 9.3934 139.121 9.30007C138.881 9.1934 138.594 9.10673 138.261 9.04007C137.941 8.9734 137.601 8.92007 137.241 8.88007C136.881 8.82673 136.507 8.7734 136.121 8.72007C135.214 8.6134 134.414 8.44673 133.721 8.22007C133.027 7.9934 132.427 7.70673 131.921 7.36007C131.427 7.0134 131.047 6.60007 130.781 6.12007C130.527 5.62673 130.401 5.06673 130.401 4.44007C130.401 3.74673 130.561 3.12673 130.881 2.58007C131.214 2.02007 131.681 1.5534 132.281 1.18007C132.881 0.793401 133.567 0.500067 134.341 0.300068C135.127 0.100068 135.967 6.79493e-05 136.861 6.79493e-05C137.821 6.79493e-05 138.681 0.0934013 139.441 0.280068C140.214 0.466735 140.894 0.720068 141.481 1.04007C142.067 1.36007 142.547 1.72007 142.921 2.12007L141.161 4.40007C140.787 4.06673 140.361 3.7934 139.881 3.58007C139.401 3.3534 138.894 3.18007 138.361 3.06007C137.827 2.94007 137.307 2.88007 136.801 2.88007C136.254 2.88007 135.767 2.9334 135.341 3.04007C134.927 3.1334 134.594 3.2734 134.341 3.46007C134.087 3.64673 133.961 3.88673 133.961 4.18007C133.961 4.44673 134.061 4.66673 134.261 4.84007C134.474 5.0134 134.747 5.1534 135.081 5.26007C135.427 5.36673 135.801 5.4534 136.201 5.52007C136.601 5.58673 137.001 5.64007 137.401 5.68007C138.174 5.78673 138.921 5.92007 139.641 6.08007C140.374 6.24007 141.027 6.46673 141.601 6.76007C142.174 7.0534 142.621 7.44673 142.941 7.94007C143.274 8.4334 143.441 9.0734 143.441 9.86007C143.441 10.8467 143.154 11.6867 142.581 12.3801C142.021 13.0734 141.247 13.6067 140.261 13.9801C139.287 14.3401 138.174 14.5201 136.921 14.5201ZM145.088 14.3201V11.3601H148.448V3.28007H145.088V0.320067H155.248V3.28007H151.848V11.3601H155.248V14.3201H145.088ZM164.518 14.5201C163.332 14.5201 162.238 14.3601 161.238 14.0401C160.252 13.7201 159.392 13.2534 158.658 12.6401C157.925 12.0267 157.358 11.2667 156.958 10.3601C156.558 9.4534 156.358 8.42007 156.358 7.26007C156.358 6.22007 156.572 5.26673 156.998 4.40007C157.425 3.52007 158.018 2.7534 158.778 2.10007C159.552 1.44673 160.458 0.940068 161.498 0.580068C162.552 0.220068 163.692 0.0400674 164.918 0.0400674C165.918 0.0400674 166.825 0.153401 167.638 0.380068C168.465 0.593401 169.198 0.873401 169.838 1.22007C170.478 1.56673 170.998 1.94673 171.398 2.36007L169.338 4.62007C168.952 4.3134 168.532 4.04673 168.078 3.82007C167.638 3.5934 167.152 3.40673 166.618 3.26007C166.085 3.1134 165.512 3.04007 164.898 3.04007C164.192 3.04007 163.532 3.14673 162.918 3.36007C162.318 3.5734 161.792 3.8734 161.338 4.26007C160.885 4.6334 160.532 5.08007 160.278 5.60007C160.038 6.10673 159.918 6.66007 159.918 7.26007C159.918 7.9934 160.052 8.6334 160.318 9.18007C160.585 9.7134 160.945 10.1534 161.398 10.5001C161.865 10.8334 162.392 11.0867 162.978 11.2601C163.578 11.4334 164.212 11.5201 164.878 11.5201C165.505 11.5201 166.085 11.4534 166.618 11.3201C167.165 11.1867 167.632 11.0067 168.018 10.7801C168.405 10.5401 168.705 10.2601 168.918 9.94007C169.145 9.60673 169.252 9.24673 169.238 8.86007V8.44007L169.698 9.24007H164.618V6.60007H172.498C172.525 6.78673 172.545 7.00007 172.558 7.24007C172.572 7.48007 172.578 7.70007 172.578 7.90007C172.578 8.08673 172.578 8.2134 172.578 8.28007C172.578 9.28007 172.385 10.1734 171.998 10.9601C171.612 11.7334 171.058 12.3801 170.338 12.9001C169.632 13.4201 168.778 13.8201 167.778 14.1001C166.792 14.3801 165.705 14.5201 164.518 14.5201ZM174.894 14.3201V0.320067H178.094L187.434 10.3201L186.934 10.2201C186.854 9.72673 186.787 9.26007 186.734 8.82007C186.694 8.36673 186.66 7.9334 186.634 7.52007C186.607 7.10673 186.58 6.70007 186.554 6.30007C186.54 5.90007 186.534 5.4934 186.534 5.08007C186.534 4.6534 186.534 4.22007 186.534 3.78007V0.320067H189.834V14.3201H186.594L176.934 4.00007L177.794 4.14007C177.847 4.46007 177.887 4.7734 177.914 5.08007C177.954 5.38673 177.994 5.70673 178.034 6.04007C178.074 6.36007 178.107 6.70007 178.134 7.06007C178.16 7.42007 178.174 7.8134 178.174 8.24007C178.187 8.66673 178.194 9.1334 178.194 9.64007V14.3201H174.894Z" fill="#CD3796"/>
</svg>
